<svg width="267" height="49" viewBox="0 0 267 49" fill="none" xmlns="http://www.w3.org/2000/svg">
	<path
		d="M20.0027 48.1214L25.2396 42.5214C25.2396 42.5214 13.2035 30.2843 11.0039 28.0855C8.15464 24.4222 7.45519 21.98 7.83797 18.9093C8.09603 16.8391 10.1662 7.97547 20.452 7.78172C30.1346 8.14072 32.2268 16.9685 31.9679 20.7849C31.709 24.6013 28.8638 28.0301 25.8225 31.2645C28.0213 33.3354 31.2564 36.5706 31.2564 36.5706C31.2564 36.5706 40.3178 30.4235 39.9914 19.0379C39.6649 7.65228 29.9685 0 20.0027 0C10.0368 0 -0.434634 8.49322 0.0139193 20.3966C0.827985 26.8644 2.86317 30.1207 5.57241 33.4649C6.9954 34.9522 20.0027 48.1214 20.0027 48.1214Z"
		fill="#FAFAFA" />
	<path d="M77.2234 11.3633C80.2214 11.3633 82.8462 11.7281 86.2873 12.7492L85.1407 16.9391C81.1821 16.0293 79.5909 15.8476 77.6309 15.8476C72.9703 15.8476 71.3791 19.0179 71.3791 23.9373C71.3791 29.223 72.9703 32.4298 77.6309 32.4298C79.5909 32.4298 81.1836 32.2482 85.1422 31.3369L86.2888 35.5283C82.8491 36.5127 80.2229 36.8775 77.2249 36.8775C68.3811 36.8775 66.0137 31.0454 66.0137 23.9373C66.0137 16.9405 68.3811 11.3633 77.2234 11.3633Z" fill="#FAFAFA" />
	<path d="M93.5012 36.5127H88.6919V11H93.5012V20.6587H93.5755C95.1667 18.9812 97.2011 17.925 99.6057 17.925C103.306 17.925 105.156 20.2939 105.156 24.0486V36.5142H100.346V25.14C100.346 23.0275 99.5314 21.8614 97.387 21.8614C95.8701 21.8614 94.4276 22.6628 93.5027 23.2458V36.5127H93.5012Z" fill="#FAFAFA" />
	<path
		d="M109.373 22.5543L108.67 18.763C111.297 18.2517 114.071 17.925 116.291 17.925C120.989 17.925 123.578 19.1277 123.578 24.0486V36.5142H118.77V34.6918C118.733 34.6918 118.733 34.6918 118.696 34.6918C117.104 36.2959 115.55 36.879 113.219 36.879C109.52 36.879 107.484 34.4354 107.484 31.2652C107.484 26.8189 111.629 25.5795 115.254 25.5795H118.77V24.3021C118.77 22.443 117.585 21.8614 115.18 21.8614C113.7 21.8614 112.036 22.0079 109.373 22.5543ZM118.771 28.4216H115.552C113.369 28.4216 112.298 29.1863 112.298 30.8637C112.298 32.4679 113.592 33.2326 115.182 33.2326C116.7 33.2326 118.105 32.6129 118.771 32.1031V28.4216Z"
		fill="#FAFAFA" />
	<path d="M126.464 11H131.274V36.5127H126.464V11Z" fill="#FAFAFA" />
	<path d="M138.971 24.6669L145.926 18.2883H151.735L145.001 24.8485L152.105 36.5127H146.444L141.634 27.547L138.971 29.9525V36.5142H134.162V11H138.971V24.6669Z" fill="#FAFAFA" />
	<path d="M152.362 18.2898H157.726L161.945 31.5919H162.018L166.125 18.2898H171.232L164.683 37.1676C162.909 42.38 160.541 44.1644 156.432 44.1644C155.433 44.1644 154.064 44.056 153.103 43.8362L153.548 39.9364C154.102 40.0463 154.916 40.1181 155.322 40.1181C157.097 40.1181 158.506 38.7703 159.207 36.7662L152.362 18.2898Z" fill="#FAFAFA" />
	<path
		d="M174.154 35.6367L174.636 33.3762C178.409 34.2874 180.925 34.4706 182.995 34.4706C187.25 34.4706 188.952 32.1749 188.952 29.9877C188.952 26.6343 185.031 25.7583 182.44 25.0668C178.482 24.0823 174.526 21.9317 174.526 17.7404C174.526 13.1491 178.262 11.3619 182.995 11.3619C185.734 11.3619 188.325 11.7266 191.32 12.6012L190.692 14.8632C186.917 13.952 185.07 13.7703 182.995 13.7703C178.741 13.7703 177.41 15.7011 177.41 17.8151C177.41 21.022 181.59 22.1896 184.253 22.8093C188.212 23.6839 191.84 25.5063 191.84 29.7694C191.84 34.5072 188.065 36.8775 182.997 36.8775C180.259 36.8775 177.151 36.5127 174.154 35.6367Z"
		fill="#FAFAFA" />
	<path d="M197.573 20.1474H194.648V18.4714L197.573 18.2898L197.908 13.1872H200.165V18.2898H205.641V20.1488H200.165V30.7539C200.165 33.4143 200.903 34.8002 203.532 34.8002C204.121 34.8002 204.714 34.765 205.565 34.6185L205.826 36.6226C204.863 36.7691 203.532 36.879 202.715 36.879C199.129 36.879 197.575 35.4199 197.575 31.1567L197.573 20.1474Z" fill="#FAFAFA" />
	<path d="M212.295 11.7281V16.0659H209.708V11.7281H212.295ZM212.295 18.2898V36.5127H209.708V18.2898H212.295Z" fill="#FAFAFA" />
	<path d="M225.023 17.925C227.318 17.925 228.982 18.1799 231.201 18.7263L230.722 20.8052C227.836 20.0756 226.282 20.0756 225.023 20.0756C220.62 20.0756 218.919 23.2107 218.919 27.402C218.919 31.5918 220.622 34.7269 225.023 34.7269C226.282 34.7269 227.836 34.7269 230.722 33.9988L231.201 36.0762C228.982 36.6226 227.318 36.879 225.023 36.879C218.474 36.879 216.183 33.0143 216.183 27.402C216.183 21.7896 218.473 17.925 225.023 17.925Z" fill="#FAFAFA" />
	<path d="M236.64 26.271L246.48 18.2898H249.699L242.522 24.4486L250.067 36.5127H246.998L240.709 25.8696L236.64 29.1131V36.5127H234.05V11H236.64V26.271Z" fill="#FAFAFA" />
	<path
		d="M259.392 36.8775C256.579 36.8775 253.879 36.6211 251.66 36.0747L252.142 33.9974C255.064 34.7255 257.875 34.7987 259.096 34.7987C263.054 34.7987 263.426 32.3566 263.426 31.6285C263.426 30.2792 262.613 29.1863 258.764 28.4216C254.991 27.7287 252.032 26.5259 252.032 22.8444C252.032 19.6009 254.361 17.925 258.651 17.925C261.466 17.925 263.646 18.1799 265.866 18.7278L265.388 20.8052C262.465 20.0756 260.024 20.0023 258.8 20.0023C254.917 20.0023 254.619 22.1529 254.619 22.7741C254.619 24.1219 255.25 25.288 259.057 26.0527C263.129 26.8907 266.014 27.9851 266.014 31.4834C266.014 34.9452 263.685 36.8775 259.392 36.8775Z"
		fill="#FAFAFA" />
</svg>
